<svg width="512" height="512" viewBox="0 0 512 512" fill="none" xmlns="http://www.w3.org/2000/svg">
<path d="M512 256C512 397.385 397.385 512 256 512C114.615 512 0 397.385 0 256C0 114.615 114.615 0 256 0C397.385 0 512 114.615 512 256Z" fill="#333333"/>
<path fill-rule="evenodd" clip-rule="evenodd" d="M183.5 420.997C146.099 420.997 112 384.294 112 343.996C112 286.566 132.476 252.303 150.538 222.08C156.998 211.791 162.746 201.073 167.741 189.998H161.5C134.161 189.998 112 167.837 112 140.498C112 113.161 134.161 91 161.5 91H348.498C375.822 91.0302 397.968 113.173 397.998 140.498C397.789 156.213 393.562 171.614 385.717 185.229C402.321 181.025 419.391 178.948 436.519 179.048H436.728C436.806 179.053 436.88 179.067 436.953 179.081C437.039 179.098 437.123 179.114 437.211 179.114C437.697 179.174 438.17 179.303 438.621 179.494C438.663 179.511 438.705 179.528 438.747 179.545C438.861 179.59 438.973 179.635 439.082 179.69C439.638 179.972 440.142 180.342 440.572 180.79C440.598 180.819 440.62 180.853 440.642 180.887C440.658 180.913 440.675 180.938 440.693 180.962C440.97 181.274 441.209 181.614 441.408 181.979C441.476 182.14 441.534 182.306 441.579 182.475C441.598 182.516 441.623 182.552 441.649 182.587C441.674 182.623 441.7 182.658 441.718 182.699C441.735 182.742 441.735 182.786 441.736 182.83C441.737 182.87 441.737 182.911 441.75 182.953C441.934 183.545 442.017 184.164 441.997 184.783C441.998 184.801 441.999 184.817 441.999 184.834C441.999 184.848 441.998 184.862 441.997 184.877C441.929 185.504 441.755 186.115 441.481 186.682C441.408 186.84 441.327 186.994 441.239 187.143C441.154 187.331 441.058 187.515 440.952 187.694C439.797 189.305 412.006 227.602 345.749 266.251C329.359 275.679 313.623 286.198 298.646 297.737C294.245 305.441 290.629 313.568 287.855 321.997H348.498H348.591C363.524 322.485 377.441 329.681 386.475 341.582C398.756 356.774 401.347 373.879 393.778 389.722C383.967 408.764 364.417 420.803 342.997 420.997H183.5ZM383.851 384.982C387.822 376.628 390.055 363.511 377.922 348.495C370.951 339.15 360.132 333.45 348.48 332.982C347.621 332.982 346.788 333.08 345.954 333.178C345.571 333.223 345.188 333.268 344.802 333.304C344.429 333.342 344.054 333.366 343.678 333.391C343.001 333.436 342.325 333.481 341.668 333.601C341.194 333.686 340.741 333.823 340.288 333.959C340.005 334.045 339.722 334.13 339.434 334.203C327.538 337.095 317.722 345.464 312.979 356.751C312.931 356.865 312.872 356.972 312.813 357.078C312.75 357.192 312.687 357.306 312.639 357.428C312.372 358.12 312.182 358.848 311.994 359.564C311.89 359.959 311.788 360.35 311.674 360.729C311.578 361.053 311.473 361.378 311.367 361.705C311.126 362.45 310.881 363.207 310.725 363.994C309.192 371.328 302.85 376.668 295.362 376.93C295.255 376.936 295.151 376.949 295.047 376.962C294.911 376.979 294.777 376.996 294.637 376.996H287.152C291.855 386.983 299.489 395.299 309.036 400.838L309.157 400.911C311.518 402.306 313.968 403.544 316.493 404.617C316.713 404.709 316.933 404.79 317.153 404.87C317.277 404.915 317.4 404.96 317.523 405.007C319.52 405.823 321.582 406.515 323.681 407.137C323.888 407.198 324.095 407.26 324.302 407.321C324.808 407.473 325.315 407.624 325.826 407.757C328.183 408.366 330.57 408.849 332.977 409.199C333.415 409.263 333.852 409.313 334.29 409.363C334.523 409.39 334.757 409.417 334.991 409.446C337.647 409.783 340.321 409.967 342.997 409.997C360.162 409.743 375.822 400.153 383.851 384.982ZM317.417 332.997H284.864C284.149 336.363 283.633 339.701 283.257 343.035C283.179 343.699 283.109 344.366 283.048 345.031C282.709 348.342 282.5 351.653 282.5 354.996C282.5 356.993 282.631 358.919 282.829 360.799C283.011 362.393 283.247 363.984 283.56 365.568C283.567 365.606 283.576 365.644 283.585 365.683C283.609 365.784 283.633 365.885 283.633 365.986H294.632C294.668 365.986 294.7 365.978 294.733 365.969C294.766 365.961 294.799 365.953 294.834 365.953C297.321 365.893 299.441 364.138 299.967 361.706C300.099 361.04 300.27 360.392 300.441 359.741C300.499 359.521 300.558 359.299 300.614 359.077C300.665 358.88 300.711 358.68 300.757 358.479C300.833 358.151 300.909 357.823 301.005 357.504C301.062 357.315 301.129 357.128 301.196 356.941C301.26 356.764 301.323 356.586 301.38 356.404C304.323 347.201 309.9 339.064 317.417 332.997ZM288.378 273.378C319.006 238.841 356.895 211.509 399.327 193.336C391.457 194.804 383.698 196.818 376.107 199.371C375.895 199.507 375.676 199.628 375.447 199.733C338.5 212.989 307.581 239.14 288.378 273.378ZM287.928 292.21C304.449 279.088 321.939 267.232 340.248 256.746C368.672 240.53 394.786 220.567 417.89 197.395C348.558 225.595 308.827 264.324 287.51 292.545L287.928 292.21ZM161.5 102C140.246 102.022 123.025 119.246 123 140.498C123.025 161.752 140.246 178.975 161.5 178.998H317.417C304.237 168.441 297.392 151.862 299.29 135.082C299.327 134.717 299.388 134.361 299.449 134.005C299.486 133.787 299.523 133.569 299.554 133.35C299.731 132.162 299.912 130.978 300.169 129.818C300.269 129.37 300.387 128.929 300.505 128.489C300.562 128.276 300.62 128.062 300.675 127.849C300.957 126.804 301.249 125.764 301.594 124.747C301.815 124.082 302.062 123.428 302.314 122.773C302.694 121.794 303.097 120.832 303.53 119.885C303.827 119.253 304.124 118.626 304.444 118.005C304.922 117.068 305.433 116.157 305.982 115.253C306.046 115.144 306.11 115.036 306.175 114.927C306.451 114.459 306.727 113.991 307.022 113.543C307.639 112.592 308.298 111.69 308.976 110.794C309.098 110.632 309.217 110.467 309.337 110.302C309.562 109.991 309.787 109.681 310.03 109.387C310.939 108.264 311.906 107.196 312.908 106.156C313.026 106.049 313.129 105.934 313.23 105.82C313.305 105.736 313.378 105.654 313.457 105.575C314.66 104.369 315.927 103.228 317.246 102.153L317.417 102H161.5ZM348.498 189.998H179.693C174.245 203.127 167.648 215.748 159.982 227.717C142.645 256.724 123 289.597 123 343.996C123 377.92 152.404 409.997 183.5 409.997H302.666C287.641 401.274 276.951 386.656 273.192 369.692C272.968 368.707 272.774 367.723 272.598 366.734C272.575 366.602 272.552 366.47 272.529 366.339C272.337 365.227 272.144 364.112 272.016 362.96C271.681 360.318 271.51 357.66 271.497 354.996C271.497 352.033 271.653 349.09 271.878 346.179C271.951 345.225 272.051 344.271 272.15 343.32L272.17 343.133C272.369 341.252 272.613 339.371 272.907 337.491C272.957 337.171 273.005 336.851 273.053 336.531C273.191 335.609 273.33 334.684 273.501 333.767C273.952 331.247 274.501 328.719 275.151 326.166C276.085 322.521 277.157 318.878 278.451 315.25C275.498 318.137 273.066 320.693 271.185 322.805L271.079 322.926C270.299 323.807 269.617 324.61 269.007 325.34L268.809 325.572C268.6 325.833 268.402 326.075 268.214 326.305C267.911 326.675 267.633 327.014 267.378 327.355L267.137 327.662C266.774 328.13 266.477 328.525 266.223 328.878L266.021 329.152C265.805 329.449 265.646 329.681 265.52 329.867L265.377 330.071L265.251 330.262L265.168 330.391C265.14 330.438 265.119 330.462 265.089 330.494C265.06 330.526 265.023 330.567 264.964 330.648C264.843 330.814 264.717 330.962 264.586 331.111C264.418 331.307 264.234 331.491 264.035 331.66C264.012 331.68 263.993 331.697 263.975 331.714C263.925 331.76 263.88 331.801 263.788 331.869C263.678 331.95 263.566 332.024 263.455 332.097L263.408 332.128C263.129 332.294 262.837 332.435 262.534 332.551C262.494 332.569 262.474 332.589 262.414 332.611C262.389 332.621 262.366 332.637 262.343 332.653C262.31 332.677 262.278 332.7 262.242 332.7L262.006 332.765C261.585 332.883 261.15 332.951 260.714 332.964C260.641 332.969 260.571 332.997 260.498 332.997L260.45 332.974C260.422 332.974 260.394 332.967 260.367 332.96C260.339 332.953 260.311 332.946 260.284 332.946C259.742 332.936 259.209 332.843 258.695 332.672L258.617 332.629H258.551C257.726 332.382 257.008 331.861 256.517 331.154C256.185 330.809 255.898 330.424 255.664 330.006C255.571 329.779 255.49 329.547 255.422 329.311C255.289 329.016 255.183 328.709 255.102 328.394V328.097C255.082 327.823 255.082 327.551 255.102 327.276C255.082 327.007 255.082 326.738 255.102 326.468C255.11 326.418 255.153 326.209 255.218 325.919V325.887C255.253 325.718 255.302 325.508 255.358 325.263C255.399 325.085 255.445 324.889 255.493 324.676L255.548 324.444C255.669 323.933 255.817 323.334 255.994 322.634L256.054 322.387C260.827 303.615 285.324 224.301 363.612 192.478C365.739 191.604 367.869 190.745 370.07 189.955C380.548 175.544 386.45 158.31 386.998 140.498C386.998 119.236 369.76 102 348.498 102C327.236 102 309.998 119.236 309.998 140.498C309.998 161.762 327.236 178.998 348.498 178.998C351.534 178.998 353.997 181.46 353.997 184.499C353.997 187.535 351.534 189.998 348.498 189.998ZM134.868 133.625C138.005 121.482 148.957 112.997 161.5 112.999C164.537 112.999 166.999 115.462 166.999 118.498C166.999 121.537 164.537 123.999 161.5 123.999C153.985 124.012 147.429 129.098 145.551 136.374C144.921 138.811 142.716 140.51 140.198 140.498C139.732 140.5 139.269 140.44 138.818 140.324C135.878 139.564 134.11 136.565 134.868 133.625ZM200.001 123.999H183.5C180.461 123.999 177.998 121.537 177.998 118.498C177.998 115.462 180.461 112.999 183.5 112.999H200.001C203.037 112.999 205.499 115.462 205.499 118.498C205.499 121.537 203.037 123.999 200.001 123.999ZM134.924 336.051C136.611 338.577 140.024 339.259 142.552 337.574L153.25 330.424C154.914 329.311 157.084 329.311 158.751 330.424L163.633 333.68C168.995 337.26 175.987 337.26 181.35 333.68L186.244 330.424C187.908 329.311 190.078 329.311 191.745 330.424L196.627 333.68C201.99 337.26 208.981 337.26 214.344 333.68L219.238 330.424C220.902 329.311 223.073 329.311 224.739 330.424L235.429 337.574C237.957 339.259 241.374 338.577 243.058 336.051C244.745 333.524 244.062 330.107 241.535 328.423L230.842 321.273C225.482 317.69 218.49 317.69 213.128 321.273L208.233 324.528C206.569 325.641 204.396 325.641 202.732 324.528L197.848 321.273C192.488 317.69 185.496 317.69 180.134 321.273L175.239 324.528C173.575 325.641 171.402 325.641 169.738 324.528L164.854 321.273C159.494 317.69 152.502 317.69 147.139 321.273L136.442 328.423C133.917 330.11 133.237 333.524 134.924 336.051ZM164.25 286.422L153.552 293.573H153.547C151.019 295.259 147.605 294.577 145.918 292.049C144.232 289.522 144.914 286.108 147.442 284.421L158.139 277.271C163.502 273.69 170.494 273.69 175.854 277.271L180.738 280.528C182.402 281.639 184.575 281.639 186.239 280.528L191.133 277.271C196.496 273.69 203.488 273.69 208.848 277.271L213.732 280.528C215.396 281.639 217.569 281.639 219.233 280.528L224.128 277.271C229.49 273.69 236.482 273.69 241.842 277.271L252.535 284.421C255.062 286.108 255.745 289.522 254.058 292.049C252.373 294.577 248.957 295.259 246.429 293.573L235.739 286.422C234.072 285.312 231.902 285.312 230.238 286.422L225.344 289.68C219.981 293.26 212.989 293.26 207.627 289.68L202.745 286.422C201.078 285.312 198.908 285.312 197.244 286.422L192.349 289.68C186.987 293.26 179.995 293.26 174.633 289.68L169.751 286.422C168.084 285.312 165.914 285.312 164.25 286.422ZM170.053 255.074L180.751 247.924C182.415 246.811 184.585 246.811 186.249 247.924L191.134 251.179C196.496 254.76 203.488 254.76 208.848 251.179L213.745 247.924C215.409 246.811 217.579 246.811 219.243 247.924L224.128 251.179C229.49 254.76 236.482 254.76 241.842 251.179L246.739 247.924C248.403 246.811 250.573 246.811 252.238 247.924L262.93 255.074C265.458 256.759 268.872 256.076 270.559 253.551C272.246 251.023 271.563 247.607 269.036 245.923L258.343 238.772C252.98 235.19 245.991 235.19 240.629 238.772L235.732 242.028C234.068 243.141 231.897 243.141 230.233 242.028L225.349 238.772C219.986 235.19 212.997 235.19 207.634 238.772L202.738 242.028C201.073 243.141 198.903 243.141 197.239 242.028L192.355 238.772C186.992 235.19 180 235.19 174.64 238.772L163.943 245.923C161.415 247.607 160.733 251.023 162.419 253.551C164.104 256.076 167.52 256.759 170.048 255.074H170.053Z" fill="white"/>
</svg>
